<?xml version="1.0" encoding="UTF-8" standalone="no"?>
<svg width="200px" height="200px" viewBox="0 0 200 200" version="1.1" xmlns="http://www.w3.org/2000/svg" xmlns:xlink="http://www.w3.org/1999/xlink">
    <defs>
        <linearGradient id="authorGradient" x1="0%" y1="0%" x2="100%" y2="100%">
            <stop offset="0%" stop-color="#4338CA" />
            <stop offset="100%" stop-color="#3B82F6" />
        </linearGradient>
        <clipPath id="circleClip">
            <circle cx="100" cy="100" r="100" />
        </clipPath>
    </defs>
    <g stroke="none" stroke-width="1" fill="none" fill-rule="evenodd" clip-path="url(#circleClip)">
        <!-- Background -->
        <rect fill="url(#authorGradient)" x="0" y="0" width="200" height="200"></rect>
        
        <!-- Decorative Elements -->
        <g opacity="0.2" stroke="white" stroke-width="1">
            <line x1="0" y1="40" x2="200" y2="40" />
            <line x1="0" y1="80" x2="200" y2="80" />
            <line x1="0" y1="120" x2="200" y2="120" />
            <line x1="0" y1="160" x2="200" y2="160" />
            
            <line x1="40" y1="0" x2="40" y2="200" />
            <line x1="80" y1="0" x2="80" y2="200" />
            <line x1="120" y1="0" x2="120" y2="200" />
            <line x1="160" y1="0" x2="160" y2="200" />
        </g>
        
        <!-- JELL Text -->
        <text x="100" y="110" font-family="Arial, sans-serif" font-size="48" font-weight="bold" fill="white" text-anchor="middle">JELL</text>
        
        <!-- GitHub Icon -->
        <g transform="translate(70, 130)" fill="white">
            <path d="M20,0 C8.95,0 0,8.95 0,20 C0,28.85 5.73,36.33 13.68,38.97 C14.68,39.15 15.05,38.54 15.05,38.02 C15.05,37.54 15.04,36.29 15.03,34.64 C9.46,35.86 8.28,31.97 8.28,31.97 C7.37,29.66 6.06,29.06 6.06,29.06 C4.24,27.82 6.2,27.84 6.2,27.84 C8.2,27.97 9.26,29.88 9.26,29.88 C11.04,32.93 13.94,32.09 15.09,31.57 C15.27,30.28 15.79,29.44 16.37,28.96 C11.92,28.47 7.25,26.73 7.25,19.04 C7.25,16.84 8.03,15.04 9.3,13.64 C9.09,13.13 8.41,11.09 9.5,8.32 C9.5,8.32 11.18,7.79 15.01,10.38 C16.6,9.94 18.3,9.72 20,9.72 C21.7,9.72 23.4,9.94 24.99,10.38 C28.82,7.79 30.5,8.32 30.5,8.32 C31.59,11.09 30.91,13.13 30.7,13.64 C31.97,15.04 32.75,16.84 32.75,19.04 C32.75,26.75 28.07,28.46 23.61,28.94 C24.33,29.54 24.97,30.73 24.97,32.57 C24.97,35.27 24.95,37.36 24.95,38.02 C24.95,38.55 25.32,39.17 26.34,38.97 C34.28,36.32 40,28.85 40,20 C40,8.95 31.05,0 20,0 Z" />
        </g>
        
        <!-- LinkedIn Icon -->
        <g transform="translate(120, 130)" fill="white">
            <path d="M37,0 H3 C1.35,0 0,1.35 0,3 v34 c0,1.65 1.35,3 3,3 h34 c1.65,0 3,-1.35 3,-3 V3 C40,1.35 38.65,0 37,0 zM12,34 H6 V16 h6 V34 z M9,13.3 c-1.9,0 -3.5,-1.6 -3.5,-3.5 c0,-1.9 1.6,-3.5 3.5,-3.5 c1.9,0 3.5,1.6 3.5,3.5 C12.5,11.7 10.9,13.3 9,13.3 z M34,34 h-6 v-9.8 c0,-2.4 -0.8,-4 -3,-4 c-4,0 -5,3.5 -5,3.5 V34 h-6 V16 h6 v2.6 c0.8,-1.3 3,-2.6 6.5,-2.6 c2.2,0 7.5,1.3 7.5,9 V34 z" />
        </g>
    </g>
</svg>