<svg width="1200" height="630" viewBox="0 0 1200 630" xmlns="http://www.w3.org/2000/svg">
  <defs>
    <linearGradient id="bgGradient" x1="0%" y1="0%" x2="100%" y2="100%">
      <stop offset="0%" style="stop-color:#1e3a8a;stop-opacity:1" />
      <stop offset="100%" style="stop-color:#3730a3;stop-opacity:1" />
    </linearGradient>
    <!-- Softer quadrant background -->
    <linearGradient id="quadrantBg" x1="0%" y1="0%" x2="100%" y2="100%">
      <stop offset="0%" style="stop-color:#3b82f6;stop-opacity:0.15" />
      <stop offset="100%" style="stop-color:#1e40af;stop-opacity:0.25" />
    </linearGradient>
  </defs>
  
  <!-- Background -->
  <rect width="1200" height="630" fill="url(#bgGradient)"/>
  
  <!-- Grid pattern -->
  <defs>
    <pattern id="grid" width="40" height="40" patternUnits="userSpaceOnUse">
      <path d="M 40 0 L 0 0 0 40" fill="none" stroke="rgba(255,255,255,0.1)" stroke-width="1"/>
    </pattern>
  </defs>
  <rect width="1200" height="630" fill="url(#grid)"/>
  
  <!-- TOP-LEFT QUADRANT: Before/After Design Comparison (520x150) -->
  <g transform="translate(60, 60)">
    <rect x="0" y="0" width="520" height="150" rx="12" fill="url(#quadrantBg)" stroke="rgba(255,255,255,0.2)" stroke-width="1"/>
    
    <!-- Before section -->
    <g transform="translate(30, 25)">
      <text x="0" y="0" fill="#ef4444" font-family="sans-serif" font-size="14" font-weight="bold">Before: Chaos</text>
      
      <!-- Chaotic layout representation -->
      <rect x="0" y="15" width="100" height="25" rx="4" fill="#ef4444" opacity="0.7"/>
      <text x="50" y="31" text-anchor="middle" fill="white" font-family="sans-serif" font-size="10">Inconsistent</text>
      
      <rect x="30" y="50" width="80" height="20" rx="4" fill="#f59e0b" opacity="0.7"/>
      <text x="70" y="63" text-anchor="middle" fill="white" font-family="sans-serif" font-size="9">Overlapping</text>
      
      <rect x="60" y="80" width="90" height="15" rx="4" fill="#8b5cf6" opacity="0.7"/>
      <text x="105" y="90" text-anchor="middle" fill="white" font-family="sans-serif" font-size="8">Mixed Styles</text>
    </g>
    
    <!-- Arrow -->
    <path d="M180 75 L260 75 M240 55 L260 75 L240 95" stroke="#60a5fa" stroke-width="4" fill="none"/>
    <text x="220" y="50" text-anchor="middle" fill="#60a5fa" font-family="sans-serif" font-size="12" font-weight="bold">Redesign</text>
    
    <!-- After section -->
    <g transform="translate(280, 25)">
      <text x="0" y="0" fill="#22c55e" font-family="sans-serif" font-size="14" font-weight="bold">After: Grid System</text>
      
      <!-- Grid system representation -->
      <rect x="0" y="15" width="100" height="25" rx="4" fill="#3b82f6" opacity="0.9"/>
      <text x="50" y="31" text-anchor="middle" fill="white" font-family="sans-serif" font-size="10">520×150</text>
      
      <rect x="110" y="15" width="60" height="25" rx="4" fill="#3b82f6" opacity="0.9"/>
      <text x="140" y="31" text-anchor="middle" fill="white" font-family="sans-serif" font-size="10">300×150</text>
      
      <rect x="0" y="50" width="60" height="25" rx="4" fill="#3b82f6" opacity="0.9"/>
      <text x="30" y="66" text-anchor="middle" fill="white" font-family="sans-serif" font-size="10">300×150</text>
      
      <rect x="70" y="50" width="100" height="25" rx="4" fill="#3b82f6" opacity="0.9"/>
      <text x="120" y="66" text-anchor="middle" fill="white" font-family="sans-serif" font-size="10">520×150</text>
      
      <!-- Sacred text zone -->
      <rect x="0" y="85" width="170" height="15" rx="4" fill="#22c55e" opacity="0.7"/>
      <text x="85" y="95" text-anchor="middle" fill="white" font-family="sans-serif" font-size="9">Sacred Text Zone</text>
    </g>
  </g>
  
  <!-- TOP-RIGHT QUADRANT: XML Error Detective (300x150) -->
  <g transform="translate(640, 60)">
    <rect x="0" y="0" width="300" height="150" rx="12" fill="url(#quadrantBg)" stroke="rgba(255,255,255,0.2)" stroke-width="1"/>
    
    <text x="150" y="30" text-anchor="middle" fill="white" font-family="sans-serif" font-size="16" font-weight="bold">XML Detective Work</text>
    
    <!-- Error message -->
    <rect x="20" y="45" width="260" height="25" rx="4" fill="#ef4444"/>
    <text x="150" y="62" text-anchor="middle" fill="white" font-family="monospace" font-size="11">xmlParseEntityRef: no name</text>
    
    <!-- The culprit -->
    <text x="20" y="85" fill="#94a3b8" font-family="monospace" font-size="12">Problem: S&amp;S, signals &amp;&amp; systems</text>
    <text x="20" y="105" fill="#94a3b8" font-family="monospace" font-size="12">Solution: S&amp;amp;S, signals &amp;amp;&amp;amp; systems</text>
    
    <!-- Detective badge -->
    <g transform="translate(230, 110)">
      <circle cx="20" cy="20" r="15" fill="#f59e0b"/>
      <text x="20" y="25" text-anchor="middle" fill="white" font-family="sans-serif" font-size="12" font-weight="bold">🔍</text>
    </g>
  </g>
  
  <!-- BOTTOM-LEFT QUADRANT: Design Principles (300x150) -->
  <g transform="translate(60, 240)">
    <rect x="0" y="0" width="300" height="150" rx="12" fill="url(#quadrantBg)" stroke="rgba(255,255,255,0.2)" stroke-width="1"/>
    
    <text x="150" y="30" text-anchor="middle" fill="white" font-family="sans-serif" font-size="16" font-weight="bold">Design Principles</text>
    
    <!-- Principle blocks -->
    <g transform="translate(20, 45)">
      <rect x="0" y="0" width="260" height="20" rx="4" fill="#3b82f6"/>
      <text x="130" y="14" text-anchor="middle" fill="white" font-family="sans-serif" font-size="12" font-weight="bold">Consistent Grid System</text>
      
      <rect x="0" y="30" width="260" height="20" rx="4" fill="#10b981"/>
      <text x="130" y="44" text-anchor="middle" fill="white" font-family="sans-serif" font-size="12" font-weight="bold">Sacred Text Zones</text>
      
      <rect x="0" y="60" width="260" height="20" rx="4" fill="#8b5cf6"/>
      <text x="130" y="74" text-anchor="middle" fill="white" font-family="sans-serif" font-size="12" font-weight="bold">Unified Visual Language</text>
      
      <rect x="0" y="90" width="260" height="20" rx="4" fill="#f59e0b"/>
      <text x="130" y="104" text-anchor="middle" fill="white" font-family="sans-serif" font-size="12" font-weight="bold">Template-Driven Development</text>
    </g>
  </g>
  
  <!-- BOTTOM-RIGHT QUADRANT: Technical Implementation (520x150) -->
  <g transform="translate(420, 240)">
    <rect x="0" y="0" width="520" height="150" rx="12" fill="url(#quadrantBg)" stroke="rgba(255,255,255,0.2)" stroke-width="1"/>
    
    <text x="260" y="30" text-anchor="middle" fill="white" font-family="sans-serif" font-size="16" font-weight="bold">Implementation Highlights</text>
    
    <!-- Implementation grid -->
    <g transform="translate(30, 50)">
      <!-- Row 1 -->
      <rect x="0" y="0" width="140" height="30" rx="4" fill="#3178c6"/>
      <text x="70" y="19" text-anchor="middle" fill="white" font-family="sans-serif" font-size="12" font-weight="bold">Template System</text>
      
      <rect x="150" y="0" width="140" height="30" rx="4" fill="#22c55e"/>
      <text x="220" y="19" text-anchor="middle" fill="white" font-family="sans-serif" font-size="12" font-weight="bold">Test Infrastructure</text>
      
      <rect x="300" y="0" width="140" height="30" rx="4" fill="#ef4444"/>
      <text x="370" y="19" text-anchor="middle" fill="white" font-family="sans-serif" font-size="12" font-weight="bold">XML Validation</text>
      
      <!-- Row 2 -->
      <rect x="0" y="40" width="140" height="30" rx="4" fill="#8b5cf6"/>
      <text x="70" y="59" text-anchor="middle" fill="white" font-family="sans-serif" font-size="12" font-weight="bold">Grid Constraints</text>
      
      <rect x="150" y="40" width="140" height="30" rx="4" fill="#06b6d4"/>
      <text x="220" y="59" text-anchor="middle" fill="white" font-family="sans-serif" font-size="12" font-weight="bold">Visual Cohesion</text>
      
      <rect x="300" y="40" width="140" height="30" rx="4" fill="#f59e0b"/>
      <text x="370" y="59" text-anchor="middle" fill="white" font-family="sans-serif" font-size="12" font-weight="bold">Rapid Iteration</text>
    </g>
  </g>
  
  <!-- FIXED TEXT AREAS -->
  
  <!-- Title -->
  <text x="600" y="450" text-anchor="middle" fill="white" font-family="sans-serif" font-size="48" font-weight="bold">
    Cover Redesign &amp; Grid System
  </text>
  
  <!-- Subtitle -->
  <text x="600" y="490" text-anchor="middle" fill="#93c5fd" font-family="sans-serif" font-size="24">
    Design System • SVG Templates • XML Debugging • Visual Cohesion
  </text>
  
  <!-- Series indicator -->
  <text x="600" y="550" text-anchor="middle" fill="#60a5fa" font-family="sans-serif" font-size="18">
    Devlog Series • Article 5
  </text>
  
  <!-- Status indicator -->
  <g transform="translate(100, 500)">
    <rect x="0" y="0" width="200" height="40" rx="20" fill="rgba(139, 92, 246, 0.2)" stroke="#8b5cf6" stroke-width="2"/>
    <circle cx="25" cy="20" r="8" fill="#8b5cf6"/>
    <text x="45" y="25" fill="#8b5cf6" font-family="sans-serif" font-size="14" font-weight="bold">Design Complete</text>
  </g>
</svg>
