<svg width="1200" height="630" viewBox="0 0 1200 630" xmlns="http://www.w3.org/2000/svg">
  <defs>
    <linearGradient id="bgGradient" x1="0%" y1="0%" x2="100%" y2="100%">
      <stop offset="0%" style="stop-color:#1e3a8a;stop-opacity:1" />
      <stop offset="100%" style="stop-color:#3730a3;stop-opacity:1" />
    </linearGradient>
    <!-- Softer quadrant background -->
    <linearGradient id="quadrantBg" x1="0%" y1="0%" x2="100%" y2="100%">
      <stop offset="0%" style="stop-color:#3b82f6;stop-opacity:0.15" />
      <stop offset="100%" style="stop-color:#1e40af;stop-opacity:0.25" />
    </linearGradient>
  </defs>
  
  <!-- Background -->
  <rect width="1200" height="630" fill="url(#bgGradient)"/>
  
  <!-- Grid pattern -->
  <defs>
    <pattern id="grid" width="40" height="40" patternUnits="userSpaceOnUse">
      <path d="M 40 0 L 0 0 0 40" fill="none" stroke="rgba(255,255,255,0.1)" stroke-width="1"/>
    </pattern>
  </defs>
  <rect width="1200" height="630" fill="url(#grid)"/>
  
  <!-- TOP-LEFT QUADRANT: GitHub Deployment Flow (520x150) -->
  <g transform="translate(60, 60)">
    <rect x="0" y="0" width="520" height="150" rx="12" fill="url(#quadrantBg)" stroke="rgba(255,255,255,0.2)" stroke-width="1"/>
    
    <!-- GitHub icon -->
    <g transform="translate(80, 50)">
      <circle cx="25" cy="25" r="20" fill="#3b82f6"/>
      <path d="M25 10c-8.284 0-15 6.716-15 15 0 6.627 4.298 12.247 10.25 14.24v-5.01c-3.375-1.003-5.75-4.007-5.75-7.515 0-4.418 3.582-8 8-8s8 3.582 8 8c0 3.508-2.375 6.512-5.75 7.515v5.01C35.702 37.247 40 31.627 40 25c0-8.284-6.716-15-15-15z" fill="white"/>
    </g>
    
    <!-- Arrow -->
    <path d="M160 75 L240 75 M220 55 L240 75 L220 95" stroke="#60a5fa" stroke-width="4" fill="none"/>
    
    <!-- Pages deployment -->
    <g transform="translate(260, 45)">
      <rect x="0" y="0" width="80" height="60" rx="8" fill="#22c55e"/>
      <text x="40" y="20" text-anchor="middle" fill="white" font-family="sans-serif" font-size="12" font-weight="bold">GitHub</text>
      <text x="40" y="35" text-anchor="middle" fill="white" font-family="sans-serif" font-size="12" font-weight="bold">Pages</text>
      <text x="40" y="50" text-anchor="middle" fill="white" font-family="sans-serif" font-size="10">Auto Deploy</text>
    </g>
    
    <!-- Deploy status -->
    <g transform="translate(380, 65)">
      <rect x="0" y="0" width="100" height="30" rx="4" fill="#ef4444"/>
      <text x="50" y="20" text-anchor="middle" fill="white" font-family="monospace" font-size="11">Build: 1.2s</text>
    </g>
  </g>
  
  <!-- TOP-RIGHT QUADRANT: Debug Information (300x150) -->
  <g transform="translate(640, 60)">
    <rect x="0" y="0" width="300" height="150" rx="12" fill="url(#quadrantBg)" stroke="rgba(255,255,255,0.2)" stroke-width="1"/>
    
    <text x="20" y="30" fill="white" font-family="sans-serif" font-size="16" font-weight="bold">Debug Overlay</text>
    
    <!-- Debug boxes -->
    <rect x="20" y="45" width="120" height="25" rx="4" fill="#ef4444"/>
    <text x="80" y="62" text-anchor="middle" fill="white" font-family="monospace" font-size="11">DEBUG: 3 articles</text>
    
    <rect x="20" y="80" width="100" height="25" rx="4" fill="#3b82f6"/>
    <text x="70" y="97" text-anchor="middle" fill="white" font-family="monospace" font-size="11">State: loaded</text>
    
    <rect x="20" y="115" width="90" height="25" rx="4" fill="#22c55e"/>
    <text x="65" y="132" text-anchor="middle" fill="white" font-family="monospace" font-size="11">Ready: ✓</text>
  </g>
  
  <!-- BOTTOM-LEFT QUADRANT: Custom Domains (300x150) -->
  <g transform="translate(60, 240)">
    <rect x="0" y="0" width="300" height="150" rx="12" fill="url(#quadrantBg)" stroke="rgba(255,255,255,0.2)" stroke-width="1"/>
    
    <text x="20" y="30" fill="white" font-family="sans-serif" font-size="16" font-weight="bold">Custom Domains</text>
    
    <text x="20" y="55" fill="#93c5fd" font-family="monospace" font-size="12">signalsandsystems.jellwrites.com</text>
    <text x="20" y="75" fill="#93c5fd" font-family="monospace" font-size="12">signalsys.dev</text>
    
    <!-- Globe icon -->
    <g transform="translate(220, 90)">
      <circle cx="20" cy="20" r="18" fill="none" stroke="#60a5fa" stroke-width="3"/>
      <path d="M2 20 Q20 5 38 20 Q20 35 2 20" fill="none" stroke="#60a5fa" stroke-width="2"/>
      <path d="M2 20 Q20 35 38 20 Q20 5 2 20" fill="none" stroke="#60a5fa" stroke-width="2"/>
      <line x1="20" y1="2" x2="20" y2="38" stroke="#60a5fa" stroke-width="2"/>
    </g>
  </g>
  
  <!-- BOTTOM-RIGHT QUADRANT: Deployment Benefits (520x150) -->
  <g transform="translate(420, 240)">
    <rect x="0" y="0" width="520" height="150" rx="12" fill="url(#quadrantBg)" stroke="rgba(255,255,255,0.2)" stroke-width="1"/>
    
    <text x="20" y="30" fill="white" font-family="sans-serif" font-size="16" font-weight="bold">Production Features</text>
    
    <!-- Feature grid -->
    <g transform="translate(20, 50)">
      <rect x="0" y="0" width="120" height="30" rx="4" fill="#22c55e"/>
      <text x="60" y="19" text-anchor="middle" fill="white" font-family="sans-serif" font-size="12" font-weight="bold">Free Hosting</text>
      
      <rect x="130" y="0" width="120" height="30" rx="4" fill="#3b82f6"/>
      <text x="190" y="19" text-anchor="middle" fill="white" font-family="sans-serif" font-size="12" font-weight="bold">Auto Deploy</text>
      
      <rect x="0" y="40" width="120" height="30" rx="4" fill="#8b5cf6"/>
      <text x="60" y="59" text-anchor="middle" fill="white" font-family="sans-serif" font-size="12" font-weight="bold">SSL/HTTPS</text>
      
      <rect x="130" y="40" width="120" height="30" rx="4" fill="#f59e0b"/>
      <text x="190" y="59" text-anchor="middle" fill="white" font-family="sans-serif" font-size="12" font-weight="bold">Custom Domain</text>
      
      <rect x="260" y="0" width="120" height="30" rx="4" fill="#06b6d4"/>
      <text x="320" y="19" text-anchor="middle" fill="white" font-family="sans-serif" font-size="12" font-weight="bold">Git Integration</text>
      
      <rect x="260" y="40" width="120" height="30" rx="4" fill="#ef4444"/>
      <text x="320" y="59" text-anchor="middle" fill="white" font-family="sans-serif" font-size="12" font-weight="bold">Debug Tools</text>
    </g>
  </g>
  
  <!-- FIXED TEXT AREAS -->
  
  <!-- Title -->
  <text x="600" y="450" text-anchor="middle" fill="white" font-family="sans-serif" font-size="48" font-weight="bold">
    Deployment &amp; Development Debugging
  </text>
  
  <!-- Subtitle -->
  <text x="600" y="490" text-anchor="middle" fill="#93c5fd" font-family="sans-serif" font-size="24">
    GitHub Pages • Custom Domains • Debug Patterns
  </text>
  
  <!-- Series indicator -->
  <text x="600" y="550" text-anchor="middle" fill="#60a5fa" font-family="sans-serif" font-size="18">
    Devlog Series • Article 4
  </text>
  
  <!-- Status indicator -->
  <g transform="translate(100, 500)">
    <rect x="0" y="0" width="200" height="40" rx="20" fill="rgba(34, 197, 94, 0.2)" stroke="#22c55e" stroke-width="2"/>
    <circle cx="30" cy="20" r="8" fill="#22c55e"/>
    <text x="50" y="25" fill="#22c55e" font-family="sans-serif" font-size="14" font-weight="bold">Production Ready</text>
  </g>
</svg>
