<svg width="1200" height="630" viewBox="0 0 1200 630" xmlns="http://www.w3.org/2000/svg">
  <defs>
    <!-- Vichy pattern base -->
    <pattern id="vichyPattern" width="60" height="60" patternUnits="userSpaceOnUse">
      <!-- Light green squares -->
      <rect x="0" y="0" width="30" height="30" fill="#dcfce7"/>
      <rect x="30" y="30" width="30" height="30" fill="#dcfce7"/>
      <!-- Dark green squares -->
      <rect x="30" y="0" width="30" height="30" fill="#bbf7d0"/>
      <rect x="0" y="30" width="30" height="30" fill="#bbf7d0"/>
    </pattern>
    
    <!-- Diagonal grid overlay -->
    <pattern id="diagonalGrid" width="40" height="40" patternUnits="userSpaceOnUse">
      <!-- Diagonal lines -->
      <path d="M 0 0 L 40 40" stroke="rgba(34, 197, 94, 0.1)" stroke-width="1" fill="none"/>
      <path d="M 0 40 L 40 0" stroke="rgba(34, 197, 94, 0.1)" stroke-width="1" fill="none"/>
    </pattern>
    
    <!-- Conglobated isopod dots pattern -->
    <pattern id="isopodDots" width="120" height="120" patternUnits="userSpaceOnUse">
      <!-- Light brown conglobated isopod -->
      <ellipse cx="30" cy="30" rx="12" ry="8" fill="#a16207" opacity="0.6"/>
      <ellipse cx="30" cy="30" rx="8" ry="5" fill="#ca8a04" opacity="0.8"/>
      <circle cx="26" cy="28" r="1.5" fill="#713f12"/>
      
      <!-- Dark brown conglobated isopod -->
      <ellipse cx="90" cy="90" rx="12" ry="8" fill="#713f12" opacity="0.6"/>
      <ellipse cx="90" cy="90" rx="8" ry="5" fill="#a16207" opacity="0.8"/>
      <circle cx="86" cy="88" r="1.5" fill="#451a03"/>
      
      <!-- Additional scattered isopods -->
      <ellipse cx="70" cy="20" rx="10" ry="6" fill="#a16207" opacity="0.5"/>
      <ellipse cx="70" cy="20" rx="6" ry="4" fill="#ca8a04" opacity="0.7"/>
      
      <ellipse cx="20" cy="80" rx="10" ry="6" fill="#713f12" opacity="0.5"/>
      <ellipse cx="20" cy="80" rx="6" ry="4" fill="#a16207" opacity="0.7"/>
    </pattern>
    
    <!-- Soft overlay for content areas -->
    <linearGradient id="contentBg" x1="0%" y1="0%" x2="100%" y2="100%">
      <stop offset="0%" style="stop-color:#22c55e;stop-opacity:0.1" />
      <stop offset="100%" style="stop-color:#15803d;stop-opacity:0.2" />
    </linearGradient>
    
    <!-- Arrow marker definition -->
    <marker id="arrowhead" markerWidth="10" markerHeight="7" refX="9" refY="3.5" orient="auto">
      <polygon points="0 0, 10 3.5, 0 7" fill="#22c55e"/>
    </marker>
  </defs>
  
  <!-- Background layers -->
  <rect width="1200" height="630" fill="url(#vichyPattern)"/>
  <rect width="1200" height="630" fill="url(#diagonalGrid)"/>
  <rect width="1200" height="630" fill="url(#isopodDots)"/>
  
  <!-- TOP-LEFT QUADRANT: ESP32-C6 Component Overview -->
  <g transform="translate(60, 60)">
    <rect x="0" y="0" width="520" height="150" rx="12" fill="url(#contentBg)" stroke="rgba(34, 197, 94, 0.3)" stroke-width="2"/>
    
    <text x="20" y="30" fill="#166534" font-family="sans-serif" font-size="18" font-weight="bold">ESP32-C6 FireBeetle Components</text>
    
    <!-- Component specs -->
    <g transform="translate(20, 45)">
      <rect x="0" y="0" width="120" height="25" rx="4" fill="#dcfce7" stroke="#22c55e" stroke-width="1"/>
      <text x="10" y="17" fill="#166534" font-family="sans-serif" font-size="11" font-weight="600">Wi-Fi 6 Ready</text>
      
      <rect x="130" y="0" width="100" height="25" rx="4" fill="#dcfce7" stroke="#22c55e" stroke-width="1"/>
      <text x="140" y="17" fill="#166534" font-family="sans-serif" font-size="11" font-weight="600">RISC-V CPU</text>
      
      <rect x="240" y="0" width="110" height="25" rx="4" fill="#dcfce7" stroke="#22c55e" stroke-width="1"/>
      <text x="250" y="17" fill="#166534" font-family="sans-serif" font-size="11" font-weight="600">Thread/Zigbee</text>
      
      <rect x="0" y="35" width="140" height="25" rx="4" fill="#dcfce7" stroke="#22c55e" stroke-width="1"/>
      <text x="10" y="52" fill="#166534" font-family="sans-serif" font-size="11" font-weight="600">Battery Charging</text>
      
      <rect x="150" y="35" width="90" height="25" rx="4" fill="#dcfce7" stroke="#22c55e" stroke-width="1"/>
      <text x="160" y="52" fill="#166534" font-family="sans-serif" font-size="11" font-weight="600">USB-C Port</text>
      
      <rect x="250" y="35" width="100" height="25" rx="4" fill="#dcfce7" stroke="#22c55e" stroke-width="1"/>
      <text x="260" y="52" fill="#166534" font-family="sans-serif" font-size="11" font-weight="600">13 GPIO Pins</text>
    </g>
    
    <!-- Small isopod icon -->
    <g transform="translate(450, 20)">
      <ellipse cx="20" cy="15" rx="15" ry="10" fill="#a16207" opacity="0.8"/>
      <ellipse cx="20" cy="15" rx="10" ry="6" fill="#ca8a04"/>
      <circle cx="15" cy="12" r="2" fill="#713f12"/>
    </g>
  </g>
  
  <!-- TOP-RIGHT QUADRANT: Sensor Array -->
  <g transform="translate(640, 60)">
    <rect x="0" y="0" width="500" height="150" rx="12" fill="url(#contentBg)" stroke="rgba(34, 197, 94, 0.3)" stroke-width="2"/>
    
    <text x="20" y="30" fill="#166534" font-family="sans-serif" font-size="18" font-weight="bold">Environmental Sensor Array</text>
    
    <!-- Sensor specifications -->
    <g transform="translate(20, 45)">
      <!-- Soil moisture -->
      <circle cx="40" cy="25" r="20" fill="#22c55e" opacity="0.3"/>
      <text x="15" y="30" fill="#166534" font-family="sans-serif" font-size="12" font-weight="bold">SOIL</text>
      <text x="70" y="20" fill="#166534" font-family="sans-serif" font-size="10">Capacitive Moisture</text>
      <text x="70" y="32" fill="#166534" font-family="sans-serif" font-size="10">Corrosion Resistant</text>
      
      <!-- Temperature/Humidity -->
      <circle cx="250" cy="25" r="20" fill="#22c55e" opacity="0.3"/>
      <text x="230" y="30" fill="#166534" font-family="sans-serif" font-size="12" font-weight="bold">T/H</text>
      <text x="280" y="20" fill="#166534" font-family="sans-serif" font-size="10">SHT30 ±0.2°C</text>
      <text x="280" y="32" fill="#166534" font-family="sans-serif" font-size="10">Steel Housing</text>
      
      <!-- Display -->
      <rect x="20" y="60" width="60" height="35" rx="4" fill="#22c55e" opacity="0.3" stroke="#166534" stroke-width="1"/>
      <text x="35" y="80" fill="#166534" font-family="sans-serif" font-size="10" font-weight="bold">1.8" TFT</text>
      <text x="90" y="70" fill="#166534" font-family="sans-serif" font-size="10">128x160 Display</text>
      <text x="90" y="82" fill="#166534" font-family="sans-serif" font-size="10">MicroSD Logging</text>
    </g>
  </g>
  
  <!-- BOTTOM-LEFT QUADRANT: System Architecture -->
  <g transform="translate(60, 270)">
    <rect x="0" y="0" width="520" height="300" rx="12" fill="url(#contentBg)" stroke="rgba(34, 197, 94, 0.3)" stroke-width="2"/>
    
    <text x="20" y="30" fill="#166534" font-family="sans-serif" font-size="18" font-weight="bold">ISOMON System Architecture</text>
    
    <!-- Data flow diagram -->
    <g transform="translate(20, 50)">
      <!-- Sensors box -->
      <rect x="20" y="20" width="80" height="40" rx="6" fill="#dcfce7" stroke="#22c55e" stroke-width="2"/>
      <text x="45" y="30" fill="#166534" font-family="sans-serif" font-size="10" font-weight="bold">SENSORS</text>
      <text x="35" y="45" fill="#166534" font-family="sans-serif" font-size="9">T/H + Soil</text>
      <text x="40" y="55" fill="#166534" font-family="sans-serif" font-size="9">Monitor</text>
      
      <!-- Processing box -->
      <rect x="150" y="20" width="80" height="40" rx="6" fill="#dcfce7" stroke="#22c55e" stroke-width="2"/>
      <text x="170" y="30" fill="#166534" font-family="sans-serif" font-size="10" font-weight="bold">ESP32-C6</text>
      <text x="175" y="45" fill="#166534" font-family="sans-serif" font-size="9">Process</text>
      <text x="175" y="55" fill="#166534" font-family="sans-serif" font-size="9">Validate</text>
      
      <!-- Display box -->
      <rect x="280" y="20" width="80" height="40" rx="6" fill="#dcfce7" stroke="#22c55e" stroke-width="2"/>
      <text x="305" y="30" fill="#166534" font-family="sans-serif" font-size="10" font-weight="bold">DISPLAY</text>
      <text x="305" y="45" fill="#166534" font-family="sans-serif" font-size="9">Real-time</text>
      <text x="310" y="55" fill="#166534" font-family="sans-serif" font-size="9">Data</text>
      
      <!-- Cloud box -->
      <rect x="410" y="20" width="80" height="40" rx="6" fill="#dcfce7" stroke="#22c55e" stroke-width="2"/>
      <text x="440" y="30" fill="#166534" font-family="sans-serif" font-size="10" font-weight="bold">CLOUD</text>
      <text x="435" y="45" fill="#166534" font-family="sans-serif" font-size="9">Analytics</text>
      <text x="440" y="55" fill="#166534" font-family="sans-serif" font-size="9">Alerts</text>
      
      <!-- Arrows -->
      <path d="M 100 40 L 150 40" stroke="#22c55e" stroke-width="2" fill="none" marker-end="url(#arrowhead)"/>
      <path d="M 230 40 L 280 40" stroke="#22c55e" stroke-width="2" fill="none" marker-end="url(#arrowhead)"/>
      <path d="M 360 40 L 410 40" stroke="#22c55e" stroke-width="2" fill="none" marker-end="url(#arrowhead)"/>
      
      <!-- Storage path -->
      <rect x="150" y="100" width="80" height="30" rx="6" fill="#dcfce7" stroke="#22c55e" stroke-width="1"/>
      <text x="175" y="115" fill="#166534" font-family="sans-serif" font-size="9" font-weight="bold">SD CARD</text>
      <text x="175" y="125" fill="#166534" font-family="sans-serif" font-size="8">Local Backup</text>
      
      <path d="M 190 60 L 190 100" stroke="#22c55e" stroke-width="1" fill="none" marker-end="url(#arrowhead)"/>
    </g>
    
    <!-- Power specs -->
    <g transform="translate(20, 180)">
      <text x="0" y="15" fill="#166534" font-family="sans-serif" font-size="14" font-weight="bold">Power Management</text>
      <text x="0" y="35" fill="#166534" font-family="sans-serif" font-size="11">Active: ~80mA • Sleep: ~0.8mA • Deep Sleep: ~10µA</text>
      <text x="0" y="50" fill="#166534" font-family="sans-serif" font-size="11">Battery Life: 15-20 days (2000mAh LiPo)</text>
      
      <!-- Battery indicator -->
      <rect x="420" y="20" width="60" height="25" rx="3" fill="none" stroke="#22c55e" stroke-width="2"/>
      <rect x="480" y="27" width="4" height="11" rx="1" fill="#22c55e"/>
      <rect x="425" y="25" width="50" height="15" rx="1" fill="#22c55e" opacity="0.8"/>
      <text x="440" y="58" fill="#166534" font-family="sans-serif" font-size="9">LiPo Ready</text>
    </g>
  </g>
  
  <!-- BOTTOM-RIGHT QUADRANT: Title and Series Info -->
  <g transform="translate(640, 270)">
    <rect x="0" y="0" width="500" height="300" rx="12" fill="url(#contentBg)" stroke="rgba(34, 197, 94, 0.3)" stroke-width="2"/>
    
    <!-- Series badge -->
    <rect x="20" y="20" width="100" height="30" rx="15" fill="#22c55e"/>
    <text x="50" y="38" fill="white" font-family="sans-serif" font-size="12" font-weight="bold" text-anchor="middle">ISOMON</text>
    
    <!-- Title -->
    <text x="20" y="80" fill="#166534" font-family="sans-serif" font-size="28" font-weight="bold">Building the First</text>
    <text x="20" y="115" fill="#166534" font-family="sans-serif" font-size="28" font-weight="bold">Monitoring Node</text>
    
    <!-- Subtitle -->
    <text x="20" y="145" fill="#166534" font-family="sans-serif" font-size="14">IoT-powered environmental monitoring</text>
    <text x="20" y="165" fill="#166534" font-family="sans-serif" font-size="14">for terrestrial isopod habitats</text>
    
    <!-- Episode number -->
    <circle cx="450" cy="60" r="25" fill="#22c55e"/>
    <text x="450" y="68" fill="white" font-family="sans-serif" font-size="20" font-weight="bold" text-anchor="middle">#1</text>
    
    <!-- Key features -->
    <g transform="translate(20, 190)">
      <text x="0" y="15" fill="#166534" font-family="sans-serif" font-size="12" font-weight="bold">Key Features:</text>      <text x="0" y="35" fill="#166534" font-family="sans-serif" font-size="10">• ESP32-C6 with Wi-Fi 6 &amp; Thread</text>
      <text x="0" y="50" fill="#166534" font-family="sans-serif" font-size="10">• Precision environmental sensors</text>
      <text x="0" y="65" fill="#166534" font-family="sans-serif" font-size="10">• Real-time monitoring &amp; alerts</text>
      <text x="0" y="80" fill="#166534" font-family="sans-serif" font-size="10">• Open-source hardware design</text>
    </g>
  </g>
</svg>
    
    <!-- Quadrant gradient -->
    <linearGradient id="quadrantGradient" x1="0%" y1="0%" x2="100%" y2="100%">
      <stop offset="0%" style="stop-color:rgba(34, 197, 94, 0.15)"/>
      <stop offset="100%" style="stop-color:rgba(34, 197, 94, 0.25)"/>
    </linearGradient>
    
    <!-- Grid pattern -->
    <pattern id="grid" width="40" height="40" patternUnits="userSpaceOnUse">
      <path d="M 40 0 L 0 0 0 40" fill="none" stroke="rgba(255,255,255,0.1)" stroke-width="1"/>
    </pattern>
  </defs>
  
  <!-- Background -->
  <rect width="1200" height="630" fill="url(#bgGradient)"/>
  <rect width="1200" height="630" fill="url(#grid)"/>
  
  <!-- Content quadrants -->
  <g transform="translate(60, 60)">
    <!-- Top-Left: ESP32-C6 Block Diagram -->
    <rect x="0" y="0" width="520" height="150" rx="12" fill="url(#quadrantGradient)" stroke="rgba(255,255,255,0.2)" stroke-width="1"/>
    <text x="20" y="25" fill="white" font-size="16" font-weight="bold">ESP32-C6 FireBeetle Core</text>
    
    <!-- Main processor block -->
    <rect x="30" y="40" width="120" height="70" rx="4" fill="rgba(34, 197, 94, 0.3)" stroke="#22c55e" stroke-width="2"/>
    <text x="40" y="55" fill="#22c55e" font-size="12" font-weight="bold">RISC-V 32-bit</text>
    <text x="40" y="70" fill="#22c55e" font-size="11">160 MHz</text>
    <text x="40" y="83" fill="#86efac" font-size="10">400KB SRAM</text>
    <text x="40" y="96" fill="#86efac" font-size="10">4MB Flash</text>
    
    <!-- Connectivity modules -->
    <rect x="170" y="45" width="80" height="25" rx="3" fill="rgba(59, 130, 246, 0.3)" stroke="#3b82f6"/>
    <text x="175" y="60" fill="#93c5fd" font-size="10" font-weight="bold">Wi-Fi 6</text>
    
    <rect x="170" y="75" width="80" height="25" rx="3" fill="rgba(168, 85, 247, 0.3)" stroke="#a855f7"/>
    <text x="175" y="90" fill="#c4b5fd" font-size="10" font-weight="bold">Bluetooth 5</text>
    
    <rect x="270" y="45" width="80" height="25" rx="3" fill="rgba(245, 158, 11, 0.3)" stroke="#f59e0b"/>
    <text x="275" y="60" fill="#fbbf24" font-size="10" font-weight="bold">Thread/Zigbee</text>
    
    <rect x="270" y="75" width="80" height="25" rx="3" fill="rgba(239, 68, 68, 0.3)" stroke="#ef4444"/>
    <text x="275" y="90" fill="#fca5a5" font-size="10" font-weight="bold">Matter</text>
    
    <!-- GPIO indicators -->
    <g transform="translate(380, 40)">
      <text x="0" y="15" fill="rgba(255,255,255,0.8)" font-size="11">13 GPIO Pins</text>
      <text x="0" y="30" fill="rgba(255,255,255,0.6)" font-size="9">• SPI, I2C, UART</text>
      <text x="0" y="42" fill="rgba(255,255,255,0.6)" font-size="9">• ADC, PWM</text>
      <text x="0" y="54" fill="rgba(255,255,255,0.6)" font-size="9">• USB-C charging</text>
    </g>
  </g>
  
  <g transform="translate(640, 60)">
    <!-- Top-Right: Sensor Specifications -->
    <rect x="0" y="0" width="300" height="150" rx="12" fill="url(#quadrantGradient)" stroke="rgba(255,255,255,0.2)" stroke-width="1"/>
    <text x="20" y="25" fill="white" font-size="16" font-weight="bold">Precision Sensors</text>
    
    <!-- Soil moisture sensor detail -->
    <g transform="translate(30, 35)">
      <rect x="0" y="5" width="20" height="70" rx="3" fill="rgba(168, 85, 247, 0.4)" stroke="#a855f7" stroke-width="2"/>
      <text x="30" y="20" fill="#c4b5fd" font-size="12" font-weight="bold">Capacitive Soil</text>
      <text x="30" y="35" fill="rgba(255,255,255,0.8)" font-size="10">• Corrosion resistant</text>
      <text x="30" y="48" fill="rgba(255,255,255,0.8)" font-size="10">• Linear response</text>
      <text x="30" y="61" fill="rgba(255,255,255,0.8)" font-size="10">• Low power</text>
    </g>
    
    <!-- SHT30 sensor -->
    <g transform="translate(30, 90)">
      <rect x="0" y="5" width="30" height="20" rx="3" fill="rgba(34, 197, 94, 0.4)" stroke="#22c55e" stroke-width="2"/>
      <text x="40" y="15" fill="#86efac" font-size="12" font-weight="bold">SHT30 I2C</text>
      <text x="40" y="30" fill="rgba(255,255,255,0.8)" font-size="10">±0.2°C temp, ±2% humidity</text>
    </g>
    
    <!-- Display representation -->
    <g transform="translate(180, 50)">
      <rect x="0" y="0" width="50" height="40" rx="3" fill="rgba(59, 130, 246, 0.4)" stroke="#3b82f6" stroke-width="2"/>
      <rect x="5" y="5" width="40" height="30" rx="1" fill="rgba(0,0,0,0.3)"/>
      <text x="55" y="15" fill="#93c5fd" font-size="11" font-weight="bold">1.8" TFT</text>
      <text x="55" y="30" fill="rgba(255,255,255,0.7)" font-size="9">128×160px</text>
    </g>
  </g>
  
  <g transform="translate(60, 230)">
    <!-- Bottom-Left: Wiring Schematic -->
    <rect x="0" y="0" width="300" height="150" rx="12" fill="url(#quadrantGradient)" stroke="rgba(255,255,255,0.2)" stroke-width="1"/>
    <text x="20" y="25" fill="white" font-size="16" font-weight="bold">IO Shield Connections</text>
    
    <!-- Simple wiring diagram -->
    <g transform="translate(30, 40)">
      <!-- IO Shield representation -->
      <rect x="60" y="20" width="80" height="60" rx="4" fill="rgba(34, 197, 94, 0.2)" stroke="#22c55e"/>
      <text x="75" y="35" fill="#22c55e" font-size="10" font-weight="bold">IO Shield</text>
      <text x="75" y="50" fill="#86efac" font-size="9">Screw terminals</text>
      <text x="75" y="63" fill="#86efac" font-size="9">GDI interface</text>
      
      <!-- Soil sensor connection -->
      <rect x="10" y="10" width="15" height="40" rx="2" fill="rgba(168, 85, 247, 0.3)" stroke="#a855f7"/>
      <line x1="25" y1="30" x2="60" y2="30" stroke="#a855f7" stroke-width="2"/>
      <text x="0" y="60" fill="#c4b5fd" font-size="9">A0</text>
      
      <!-- SHT30 connection -->
      <rect x="10" y="70" width="20" height="15" rx="2" fill="rgba(34, 197, 94, 0.3)" stroke="#22c55e"/>
      <line x1="30" y1="77" x2="60" y2="60" stroke="#22c55e" stroke-width="2"/>
      <text x="0" y="95" fill="#86efac" font-size="9">I2C</text>
      
      <!-- Display connection -->
      <rect x="170" y="40" width="30" height="20" rx="2" fill="rgba(59, 130, 246, 0.3)" stroke="#3b82f6"/>
      <line x1="170" y1="50" x2="140" y2="50" stroke="#3b82f6" stroke-width="2"/>
      <text x="180" y="70" fill="#93c5fd" font-size="9">GDI</text>
    </g>
  </g>
  
  <g transform="translate(420, 230)">
    <!-- Bottom-Right: Software Architecture -->
    <rect x="0" y="0" width="520" height="150" rx="12" fill="url(#quadrantGradient)" stroke="rgba(255,255,255,0.2)" stroke-width="1"/>
    <text x="20" y="25" fill="white" font-size="16" font-weight="bold">Arduino IDE Implementation</text>
    
    <!-- Code structure representation -->
    <g transform="translate(30, 40)">
      <rect x="0" y="0" width="180" height="80" rx="3" fill="rgba(0,0,0,0.3)" stroke="rgba(255,255,255,0.3)"/>
      <text x="8" y="15" fill="#22c55e" font-size="10" font-family="monospace">#include &lt;WiFi.h&gt;</text>
      <text x="8" y="28" fill="#22c55e" font-size="10" font-family="monospace">#include &lt;HTTPClient.h&gt;</text>
      <text x="8" y="41" fill="#3b82f6" font-size="10" font-family="monospace">void readSensors() {</text>
      <text x="8" y="54" fill="#93c5fd" font-size="10" font-family="monospace">  // State machine</text>
      <text x="8" y="67" fill="#3b82f6" font-size="10" font-family="monospace">}</text>
      
      <!-- Features list -->
      <g transform="translate(200, 0)">
        <text x="0" y="15" fill="#86efac" font-size="11">✓ State machine control</text>
        <text x="0" y="30" fill="#86efac" font-size="11">✓ Power management</text>
        <text x="0" y="45" fill="#86efac" font-size="11">✓ Error handling</text>
        <text x="0" y="60" fill="#86efac" font-size="11">✓ Cloud integration</text>
        <text x="0" y="75" fill="#86efac" font-size="11">✓ Local data buffer</text>
      </g>
    </g>
  </g>
  
  <!-- Fixed text areas -->
  <g transform="translate(0, 420)">
    <!-- Title -->
    <text x="600" y="40" text-anchor="middle" fill="white" font-size="48" font-weight="bold">ISOMON #1</text>
    
    <!-- Subtitle -->
    <text x="600" y="75" text-anchor="middle" fill="#93c5fd" font-size="24">Building the First Monitoring Node</text>
    
    <!-- Series line -->
    <text x="600" y="105" text-anchor="middle" fill="#60a5fa" font-size="18">ESP32-C6 • Precision Sensors • Arduino IDE • IoT Integration</text>
    
    <!-- Status indicator -->
    <g transform="translate(500, 140)">
      <rect x="0" y="0" width="200" height="40" rx="20" fill="rgba(34, 197, 94, 0.2)" stroke="#22c55e" stroke-width="1"/>
      <circle cx="30" cy="20" r="6" fill="#22c55e"/>
      <text x="50" y="25" fill="#22c55e" font-size="14" font-weight="bold">Design Complete</text>
    </g>
  </g>
</svg>
